<?xml version="1.0" standalone="no"?><svg xmlns="http://www.w3.org/2000/svg" viewBox="0 0 1440 320"><path fill=" #012b5d" fill-opacity="1" d="M0,224L24,234.7C48,245,96,267,144,272C192,277,240,267,288,256C336,245,384,235,432,208C480,181,528,139,576,133.3C624,128,672,160,720,165.3C768,171,816,149,864,154.7C912,160,960,192,1008,202.7C1056,213,1104,203,1152,202.7C1200,203,1248,213,1296,218.7C1344,224,1392,224,1416,224L1440,224L1440,320L1416,320C1392,320,1344,320,1296,320C1248,320,1200,320,1152,320C1104,320,1056,320,1008,320C960,320,912,320,864,320C816,320,768,320,720,320C672,320,624,320,576,320C528,320,480,320,432,320C384,320,336,320,288,320C240,320,192,320,144,320C96,320,48,320,24,320L0,320Z"></path></svg>